<svg width="86" height="26" viewBox="0 0 86 26" fill="none" xmlns="http://www.w3.org/2000/svg">
<path fill-rule="evenodd" clip-rule="evenodd" d="M18.6809 14.1129C17.935 13.574 17.0027 13.1408 15.8842 12.8135C15.9429 12.7991 16.0011 12.7844 16.0587 12.7694C16.2182 12.7288 16.3719 12.6908 16.5202 12.6541L16.5204 12.654C17.5022 12.4111 18.2519 12.2255 18.9279 11.7346C19.706 11.1695 19.9868 10.8927 20.3598 10.1463C20.7329 9.39991 20.9248 8.58953 20.9354 7.71517C20.9293 6.87463 20.7591 6.0994 20.4247 5.38948L20.4305 5.38889H25.2001V9.06272V20.2466H20.5944C20.8217 19.6178 20.9354 18.9327 20.9354 18.1915C20.9354 17.4451 20.7489 16.7147 20.3758 16.0002C20.0027 15.2965 19.4378 14.6674 18.6809 14.1129ZM10.0803 0.795155L10.0975 0.813734C8.75481 0.814606 7.31392 0.830969 6.11587 1.13058C4.83673 1.45046 3.29704 1.94778 2.34683 2.63873C1.38992 3.33454 0.462154 4.33539 0.230713 7.45926H5.55379C5.67104 6.62755 6.10276 5.99311 6.84892 5.55593C7.59509 5.12941 8.74631 5.08947 10.2706 5.08947C11.7416 5.08947 12.8555 5.19339 13.6443 5.74786C14.4331 6.31299 14.8382 6.96876 14.8595 7.71517C14.8489 8.38693 14.625 8.93607 14.188 9.36259C13.7509 9.79977 13.1807 10.1197 12.4771 10.3222C11.7736 10.5355 11.0221 10.6421 10.2226 10.6421H6.737V12.3056V13.2492V15.2165H10.2226C11.5338 15.2165 12.5571 15.4351 13.2926 15.8723C14.0281 16.3201 14.4012 16.9119 14.4118 17.6477C14.4012 18.3514 14.0494 18.9699 13.3565 19.503C12.8394 19.8949 12.1466 20.1428 11.2781 20.2466H9.21987C8.47947 20.1625 7.84372 19.984 7.31261 19.7109C6.53447 19.3271 6.09742 18.7353 6.00149 17.9356L0.56459 17.9356C0.639206 19.471 1.14553 20.7826 2.08356 21.8702C3.0216 22.9685 4.27409 23.8055 5.84103 24.3813C7.28022 24.9236 8.87893 25.2152 10.6372 25.256L10.6391 25.261L10.9108 25.2603C10.9636 25.2608 11.0165 25.261 11.0695 25.261C11.1666 25.261 11.2633 25.2604 11.3594 25.2593L48.1423 25.1722V24.9229H48.3223V5.75378H54.4538V18.1776C54.4642 20.6875 55.0863 22.4862 56.3199 23.5738C57.564 24.6614 59.2367 25.2052 61.338 25.2052C61.4746 25.2052 61.9893 25.209 62.7496 25.2146L62.75 25.2147C66.3539 25.2413 75.4749 25.3088 76.0188 25.2052L76.0016 25.1867C77.3443 25.1859 78.7852 25.1695 79.9832 24.8699C81.2624 24.55 82.8021 24.0527 83.7523 23.3617C84.7092 22.6659 85.637 21.6651 85.8684 18.5412H80.5453C80.4281 19.3729 79.9964 20.0074 79.2502 20.4445C78.504 20.8711 77.3528 20.911 75.8285 20.911C74.3575 20.911 73.2436 20.8071 72.4548 20.2526C71.666 19.6875 71.2609 19.0317 71.2396 18.2853C71.2503 17.6135 71.4741 17.0644 71.9111 16.6379C72.3482 16.2007 72.9185 15.8808 73.622 15.6782C74.3255 15.465 75.077 15.3583 75.8765 15.3583H79.3621V13.6949V12.7513V10.784H75.8765C74.5654 10.784 73.542 10.5654 72.8065 10.1282C72.071 9.68034 71.698 9.08855 71.6873 8.35281C71.698 7.64906 72.0497 7.03061 72.7426 6.49746C73.2599 6.10544 73.953 5.85755 74.8218 5.75378H76.8783C77.6191 5.83782 78.2552 6.01641 78.7865 6.28954C79.5647 6.6734 80.0017 7.26519 80.0976 8.06491H85.5345C85.4599 6.52945 84.9536 5.21791 84.0155 4.1303C83.0775 3.03202 81.825 2.19498 80.2581 1.61918C78.8189 1.07685 77.2202 0.78528 75.4619 0.744474L75.4599 0.739412L75.1784 0.740078C75.1289 0.739689 75.0793 0.739494 75.0296 0.739494C74.9362 0.739494 74.8433 0.740026 74.7508 0.741091L37.9567 0.828171V1.07752H37.7768V20.2466L31.6453 20.2466V7.82277C31.6348 5.31291 31.0128 3.51417 29.7792 2.42657C28.5351 1.33896 26.8624 0.795155 24.761 0.795155C24.6244 0.795155 24.1098 0.791346 23.3494 0.785717H23.3492C19.7455 0.759041 10.6242 0.691528 10.0803 0.795155ZM60.8989 5.75378H65.5048C65.2774 6.38262 65.1637 7.0677 65.1637 7.809C65.1637 8.5554 65.3502 9.28581 65.7233 10.0002C66.0964 10.704 66.6613 11.3331 67.4182 11.8876C68.1641 12.4265 69.0964 12.8596 70.2149 13.187C70.1562 13.2014 70.0981 13.216 70.0404 13.2311C69.8809 13.2717 69.7271 13.3097 69.5788 13.3464C68.5969 13.5894 67.8472 13.7749 67.1712 14.2659C66.3931 14.831 66.1124 15.1078 65.7393 15.8542C65.3662 16.6006 65.1743 17.4109 65.1637 18.2853C65.1698 19.1258 65.34 19.901 65.6743 20.6109L65.6686 20.6115H60.8989V16.9376V5.75378Z" fill="white" fill-opacity="0.3"/>
</svg>
