<svg width="40" height="20" viewBox="0 0 40 20" fill="none" xmlns="http://www.w3.org/2000/svg">
<path fill-rule="evenodd" clip-rule="evenodd" d="M30.5993 0.00408647L30.5977 0L30.3724 0.000533189C30.3305 0.000191293 30.2885 2.03451e-05 30.2464 2.03451e-05C30.1685 2.03451e-05 30.091 0.000474007 30.0139 0.00138133L0 0.0723928V4.08976H3.16015V19.7242H8.45693V4.08976H13.4594V14.2227C13.468 16.2698 13.9755 17.7368 14.9819 18.6239C15.9969 19.511 17.3617 19.9545 19.0761 19.9545C19.1875 19.9545 19.6074 19.9576 20.2278 19.9622C23.1678 19.9839 30.6099 20.039 31.0536 19.9545L31.0396 19.9394C32.1351 19.9387 33.3106 19.9253 34.2879 19.681C35.3316 19.4201 36.5877 19.0144 37.363 18.4509C38.1437 17.8834 38.9006 17.0671 39.0895 14.5192H34.7465C34.6509 15.1976 34.2986 15.715 33.6899 16.0716C33.0811 16.4195 32.1419 16.4521 30.8982 16.4521C29.6981 16.4521 28.7893 16.3673 28.1457 15.9151C27.5021 15.4541 27.1717 14.9193 27.1543 14.3105C27.163 13.7626 27.3456 13.3147 27.7022 12.9669C28.0587 12.6103 28.524 12.3494 29.098 12.1842C29.672 12.0102 30.2851 11.9233 30.9374 11.9233H33.7812V10.5666V9.79691V8.19236H30.9374C29.8677 8.19236 29.0328 8.01408 28.4327 7.65751C27.8326 7.29224 27.5282 6.80958 27.5195 6.2095C27.5282 5.63551 27.8152 5.1311 28.3805 4.69626C28.8025 4.37659 29.3678 4.17442 30.0765 4.08976H31.7552C32.3594 4.15832 32.8782 4.30396 33.3116 4.52668C33.9464 4.83976 34.303 5.32243 34.3813 5.97469L38.8171 5.97469C38.7562 4.72235 38.3431 3.65265 37.5778 2.76559C36.8125 1.86982 35.7906 1.18713 34.5122 0.717502C33.338 0.275189 32.0338 0.0373841 30.5993 0.00408647ZM22.4754 4.08976H18.7178V13.2114V16.2078H22.6092C22.6106 16.2077 22.6122 16.2075 22.6138 16.2073C22.341 15.6283 22.2021 14.9961 22.1971 14.3105C22.2058 13.5974 22.3623 12.9364 22.6667 12.3277C22.9711 11.7189 23.2002 11.4932 23.835 11.0322C24.3865 10.6318 24.9982 10.4805 25.7992 10.2823C25.9203 10.2524 26.0457 10.2214 26.1759 10.1883C26.2229 10.176 26.2704 10.164 26.3183 10.1523C25.4057 9.8853 24.6451 9.53202 24.0365 9.09247C23.419 8.64024 22.9581 8.12713 22.6537 7.55315C22.3493 6.97046 22.1971 6.37474 22.1971 5.76597C22.1971 5.16137 22.2899 4.60263 22.4754 4.08976Z" fill="white"/>
</svg>
