<svg width="608" height="26" viewBox="0 0 608 26" fill="none" xmlns="http://www.w3.org/2000/svg">
<path fill-rule="evenodd" clip-rule="evenodd" d="M-58.6486 14.1128C-59.3946 13.5739 -60.3269 13.1407 -61.4454 12.8133C-61.3867 12.799 -61.3285 12.7843 -61.2709 12.7693C-61.1113 12.7287 -60.9576 12.6906 -60.8092 12.6539C-59.8274 12.4109 -59.0777 12.2254 -58.4017 11.7345C-57.6236 11.1693 -57.3428 10.8926 -56.9698 10.1462C-56.5967 9.39979 -56.4048 8.5894 -56.3941 7.71505C-56.4003 6.87451 -56.5705 6.09927 -56.9049 5.38935L-56.8991 5.38877H-52.1295V9.0626V20.2465H-56.7352C-56.5079 19.6176 -56.3942 18.9326 -56.3942 18.1913C-56.3942 17.4449 -56.5807 16.7145 -56.9538 16.0001C-57.3269 15.2964 -57.8918 14.6673 -58.6486 14.1128ZM-67.2493 0.795033L-67.2321 0.813612C-68.5748 0.814484 -70.0157 0.830851 -71.2137 1.13045C-72.4929 1.45034 -74.0325 1.94766 -74.9828 2.6386C-75.9397 3.33442 -76.8674 4.33527 -77.0989 7.45914H-71.7758C-71.6585 6.62743 -71.2268 5.99298 -70.4807 5.55581C-69.7345 5.12929 -68.5833 5.08935 -67.059 5.08935C-65.588 5.08935 -64.4741 5.19327 -63.6853 5.74774C-62.8965 6.31287 -62.4914 6.96864 -62.4701 7.71505C-62.4807 8.38681 -62.7046 8.93595 -63.1416 9.36246C-63.5787 9.79964 -64.1489 10.1195 -64.8525 10.3221C-65.556 10.5354 -66.3075 10.642 -67.1069 10.642H-70.5926V12.3054V13.2491V15.2164H-67.1069C-65.7958 15.2164 -64.7725 15.435 -64.037 15.8722C-63.3015 16.32 -62.9284 16.9118 -62.9178 17.6475C-62.9284 18.3513 -63.2802 18.9697 -63.9731 19.5029C-64.4902 19.8948 -65.183 20.1426 -66.0514 20.2465H-68.1097C-68.8501 20.1624 -69.4859 19.9838 -70.017 19.7108C-70.7951 19.3269 -71.2322 18.7352 -71.3281 17.9354L-76.765 17.9354C-76.6904 19.4709 -76.1841 20.7824 -75.246 21.8701C-74.308 22.9683 -73.0555 23.8054 -71.4886 24.3812C-70.0494 24.9235 -68.4507 25.2151 -66.6925 25.2559L-66.6905 25.2608L-66.4188 25.2602C-66.366 25.2606 -66.3131 25.2609 -66.2601 25.2609C-66.163 25.2609 -66.0663 25.2603 -65.9702 25.2591L-29.1873 25.1721V24.9228H-29.0079V5.75378H-22.8764V18.1776C-22.8659 20.6875 -22.2439 22.4862 -21.0102 23.5738C-19.7662 24.6614 -18.0935 25.2052 -15.9921 25.2052C-15.8555 25.2052 -15.3409 25.209 -14.5805 25.2146L-14.5803 25.2147C-10.9766 25.2413 -1.85526 25.3088 -1.31139 25.2052L-1.32867 25.1865C0.0140686 25.1857 1.45503 25.1693 2.65314 24.8697C3.93227 24.5498 5.47197 24.0525 6.42218 23.3615C7.37909 22.6657 8.30685 21.6649 8.5383 18.541H3.21521C3.09796 19.3727 2.66624 20.0072 1.92009 20.4443C1.17392 20.8709 0.0226898 20.9108 -1.5016 20.9108C-2.97261 20.9108 -4.08653 20.8069 -4.87534 20.2524C-5.66414 19.6873 -6.0692 19.0315 -6.09052 18.2851C-6.07985 17.6133 -5.856 17.0642 -5.41896 16.6377C-4.98193 16.2005 -4.41165 15.8806 -3.70811 15.678C-3.00459 15.4648 -2.2531 15.3581 -1.45364 15.3581H2.03201V13.6947V12.7511V10.7837H-1.45364C-2.76476 10.7837 -3.78807 10.5652 -4.52357 10.128C-5.25908 9.68014 -5.63216 9.08835 -5.64282 8.35261C-5.63216 7.64886 -5.2804 7.03041 -4.58752 6.49726C-4.07056 6.10549 -3.37805 5.85767 -2.50998 5.75378H-0.449982C0.290039 5.83791 0.925507 6.01643 1.45641 6.28933C2.23454 6.6732 2.67159 7.26499 2.76752 8.06471H8.20442C8.12981 6.52925 7.62347 5.21771 6.68544 4.13009C5.74741 3.03181 4.49492 2.19478 2.92798 1.61898C1.48875 1.07663 -0.110001 0.785063 -1.86829 0.744268L-1.87022 0.739412L-2.13268 0.740034C-2.18846 0.739538 -2.2444 0.73929 -2.30051 0.73929C-2.40109 0.73929 -2.50114 0.739908 -2.60065 0.741142L-39.3734 0.828173V1.07739H-39.5529V20.2465L-45.6844 20.2465V7.82265C-45.6948 5.31278 -46.3169 3.51405 -47.5505 2.42644C-48.7946 1.33883 -50.4673 0.795033 -52.5686 0.795033C-52.7052 0.795033 -53.2199 0.791224 -53.9802 0.785595H-53.9804C-57.5841 0.758919 -66.7055 0.691406 -67.2493 0.795033ZM-9.91194 11.8874C-9.16599 12.4263 -8.23373 12.8594 -7.11517 13.1868C-7.17387 13.2011 -7.23204 13.2158 -7.2897 13.2309C-7.44925 13.2715 -7.60295 13.3095 -7.75136 13.3462C-8.73318 13.5892 -9.48288 13.7747 -10.1589 14.2657C-10.937 14.8308 -11.2177 15.1076 -11.5908 15.854C-11.9639 16.6004 -12.1558 17.4107 -12.1664 18.2851C-12.1603 19.1257 -11.9901 19.9009 -11.6557 20.6109L-11.6616 20.6115H-16.4312V16.9376V5.75378H-11.8254C-12.0527 6.38257 -12.1664 7.06757 -12.1664 7.8088C-12.1664 8.5552 -11.9799 9.28561 -11.6068 10C-11.2337 10.7038 -10.6688 11.3329 -9.91194 11.8874Z" fill="white" fill-opacity="0.3"/>
<path fill-rule="evenodd" clip-rule="evenodd" d="M26.9883 14.1129C26.2424 13.574 25.3101 13.1408 24.1916 12.8134C24.2503 12.7991 24.3084 12.7844 24.3661 12.7694C24.5256 12.7288 24.6793 12.6907 24.8277 12.654C25.8096 12.411 26.5593 12.2255 27.2352 11.7346C28.0134 11.1694 28.2941 10.8927 28.6672 10.1463C29.0403 9.39988 29.2322 8.5895 29.2428 7.71514C29.2367 6.87461 29.0665 6.09938 28.7321 5.38946L28.738 5.38886H33.5077V9.06269V20.2466H28.9017C29.1291 19.6177 29.2428 18.9327 29.2428 18.1914C29.2428 17.445 29.0563 16.7146 28.6832 16.0002C28.3101 15.2965 27.7451 14.6674 26.9883 14.1129ZM18.3878 0.795126L18.405 0.813705C17.0623 0.814575 15.6213 0.830929 14.4233 1.13055C13.1441 1.45043 11.6044 1.94775 10.6542 2.6387C9.6973 3.33451 8.76954 4.33537 8.5381 7.45923H13.8612C13.9784 6.62752 14.4101 5.99308 15.1563 5.5559C15.9025 5.12938 17.0537 5.08944 18.578 5.08944C20.049 5.08944 21.1629 5.19336 21.9517 5.74783C22.7405 6.31297 23.1456 6.96873 23.1669 7.71514C23.1562 8.3869 22.9324 8.93604 22.4954 9.36256C22.0583 9.79974 21.488 10.1196 20.7845 10.3222C20.081 10.5355 19.3295 10.6421 18.53 10.6421H15.0444V12.3055V13.2492V15.2165H18.53C19.8411 15.2165 20.8645 15.4351 21.6 15.8723C22.3355 16.3201 22.7085 16.9119 22.7192 17.6476C22.7085 18.3514 22.3568 18.9698 21.6639 19.503C21.1468 19.8949 20.454 20.1427 19.5855 20.2466H17.5273C16.7869 20.1625 16.1511 19.9839 15.62 19.7109C14.8419 19.327 14.4048 18.7352 14.3089 17.9355L8.87197 17.9355C8.94659 19.471 9.45291 20.7825 10.3909 21.8701C11.329 22.9684 12.5815 23.8055 14.1484 24.3813C15.5876 24.9236 17.1864 25.2152 18.9447 25.256L18.9467 25.2609L19.2183 25.2603C19.271 25.2607 19.3239 25.2609 19.3769 25.2609C19.474 25.2609 19.5706 25.2604 19.6667 25.2592L56.4498 25.1722V24.9226H56.6287V5.7535H62.7602V18.1773C62.7706 20.6872 63.3926 22.4859 64.6263 23.5735C65.8703 24.6611 67.543 25.2049 69.6444 25.2049C69.781 25.2049 70.2957 25.2087 71.056 25.2144L71.0562 25.2144C74.6599 25.241 83.7813 25.3086 84.3251 25.2049L84.3081 25.1865C85.6507 25.1856 87.0916 25.1693 88.2896 24.8697C89.5687 24.5498 91.1084 24.0525 92.0586 23.3615C93.0155 22.6657 93.9433 21.6648 94.1747 18.541H88.8517C88.7344 19.3727 88.3027 20.0071 87.5565 20.4443C86.8104 20.8708 85.6591 20.9108 84.1348 20.9108C82.6638 20.9108 81.5499 20.8068 80.7611 20.2524C79.9723 19.6872 79.5673 19.0315 79.5459 18.2851C79.5566 17.6133 79.7804 17.0642 80.2175 16.6377C80.6545 16.2005 81.2248 15.8806 81.9283 15.678C82.6319 15.4647 83.3834 15.3581 84.1828 15.3581H87.6685V13.6947V12.751V10.7837H84.1828C82.8717 10.7837 81.8484 10.5651 81.1129 10.128C80.3774 9.68011 80.0043 9.08832 79.9936 8.35258C80.0043 7.64882 80.3561 7.03038 81.0489 6.49723C81.5663 6.10515 82.2595 5.85724 83.1286 5.7535H85.1843C85.9252 5.83753 86.5614 6.01613 87.0928 6.2893C87.871 6.67317 88.308 7.26496 88.404 8.06468H93.8409C93.7663 6.52922 93.2599 5.21768 92.3219 4.13006C91.3839 3.03179 90.1314 2.19475 88.5644 1.61895C87.1253 1.07662 85.5266 0.785051 83.7683 0.744242L83.7663 0.739136L83.4804 0.739813C83.4324 0.739445 83.3842 0.739262 83.336 0.739262C83.2442 0.739262 83.1528 0.739775 83.062 0.740803L46.2631 0.827894V1.07749H46.0843V20.2466L39.9528 20.2466V7.82274C39.9423 5.31288 39.3203 3.51414 38.0867 2.42654C36.8426 1.33893 35.1699 0.795126 33.0686 0.795126C32.932 0.795126 32.4173 0.791317 31.657 0.785688H31.6567C28.053 0.759012 18.9317 0.6915 18.3878 0.795126ZM69.2053 5.7535H73.8112C73.5837 6.38236 73.47 7.06745 73.47 7.80877C73.47 8.55517 73.6566 9.28558 74.0297 9.99999C74.4027 10.7037 74.9677 11.3329 75.7245 11.8873C76.4705 12.4262 77.4027 12.8594 78.5213 13.1868C78.4626 13.2011 78.4044 13.2158 78.3468 13.2309C78.1872 13.2715 78.0335 13.3095 77.8851 13.3462C76.9033 13.5892 76.1536 13.7747 75.4776 14.2656C74.6995 14.8308 74.4187 15.1075 74.0456 15.8539C73.6725 16.6003 73.4807 17.4107 73.47 18.2851C73.4762 19.1255 73.6464 19.9007 73.9807 20.6106L73.9749 20.6112H69.2053V16.9374V5.7535Z" fill="white" fill-opacity="0.3"/>
<path fill-rule="evenodd" clip-rule="evenodd" d="M104.583 25.261L104.581 25.256C102.823 25.2151 101.225 24.9236 99.7854 24.3812C98.2184 23.8055 96.9659 22.9684 96.0279 21.8701C95.0899 20.7825 94.5835 19.471 94.5089 17.9355L99.9458 17.9355C100.042 18.7352 100.479 19.327 101.257 19.7109C101.788 19.984 102.424 20.1625 103.165 20.2466H105.222C106.091 20.1428 106.784 19.8949 107.301 19.503C107.994 18.9698 108.346 18.3514 108.356 17.6476C108.346 16.9119 107.972 16.3201 107.237 15.8722C106.501 15.4351 105.478 15.2165 104.167 15.2165H100.681V13.2492V12.3055V10.6421H104.167C104.966 10.6421 105.718 10.5355 106.421 10.3222C107.125 10.1196 107.695 9.79973 108.132 9.36255C108.569 8.93603 108.793 8.38689 108.804 7.71513C108.783 6.96873 108.377 6.31296 107.589 5.74782C106.8 5.19335 105.686 5.08943 104.215 5.08943C102.691 5.08943 101.539 5.12937 100.793 5.55589C100.047 5.99307 99.6154 6.62751 99.4981 7.45922H94.175C94.4065 4.33536 95.3343 3.3345 96.2912 2.63869C97.2414 1.94774 98.7811 1.45042 100.06 1.13054C101.258 0.830938 102.699 0.814568 104.042 0.813696L104.025 0.795177C104.568 0.691551 113.69 0.759064 117.294 0.78574H117.294C118.054 0.791368 118.569 0.795177 118.705 0.795177C120.807 0.795177 122.479 1.33898 123.723 2.42659C124.957 3.51419 125.579 5.31293 125.59 7.82279V20.2466L131.721 20.2466V1.07754H131.901V0.828171L168.695 0.741091C168.788 0.740026 168.881 0.739494 168.974 0.739494C169.024 0.739494 169.073 0.739689 169.123 0.740078L169.404 0.739412L169.406 0.744474C171.164 0.785276 172.763 1.07685 174.202 1.61918C175.769 2.19498 177.022 3.03202 177.96 4.1303C178.898 5.21791 179.404 6.52945 179.479 8.06491H174.042C173.946 7.26519 173.509 6.6734 172.731 6.28954C172.2 6.01641 171.563 5.83782 170.823 5.75378H168.766C167.897 5.85755 167.204 6.10544 166.687 6.49746C165.994 7.03061 165.642 7.64906 165.632 8.35281C165.642 9.08855 166.015 9.68034 166.751 10.1282C167.486 10.5654 168.51 10.784 169.821 10.784H173.306V12.7513V13.6949V15.3583H169.821C169.021 15.3583 168.27 15.465 167.566 15.6782C166.863 15.8808 166.293 16.2007 165.855 16.6379C165.418 17.0644 165.195 17.6135 165.184 18.2853C165.205 19.0317 165.61 19.6875 166.399 20.2526C167.188 20.8071 168.302 20.911 169.773 20.911C171.297 20.911 172.448 20.8711 173.195 20.4445C173.941 20.0074 174.372 19.3729 174.49 18.5412H179.813C179.581 21.6651 178.654 22.6659 177.697 23.3617C176.746 24.0527 175.207 24.55 173.928 24.8699C172.73 25.1695 171.289 25.1859 169.946 25.1867L169.963 25.2052C169.419 25.3088 160.298 25.2413 156.694 25.2147L156.694 25.2146C155.934 25.209 155.419 25.2052 155.282 25.2052C153.181 25.2052 151.508 24.6614 150.264 23.5738C149.031 22.4862 148.409 20.6875 148.398 18.1776V5.75378H142.267V24.9229H142.087V25.1722L105.297 25.2593C105.203 25.2604 105.109 25.2609 105.014 25.2609C104.963 25.2609 104.912 25.2607 104.861 25.2603L104.583 25.261ZM119.144 20.2466H114.539C114.766 19.6178 114.88 18.9327 114.88 18.1914C114.88 17.445 114.693 16.7146 114.32 16.0002C113.947 15.2965 113.382 14.6673 112.625 14.1129C111.879 13.574 110.947 13.1408 109.829 12.8134C109.887 12.7991 109.945 12.7844 110.003 12.7693C110.163 12.7288 110.316 12.6907 110.465 12.654L110.465 12.654C111.447 12.411 112.196 12.2255 112.872 11.7346C113.65 11.1694 113.931 10.8927 114.304 10.1463C114.677 9.39987 114.869 8.58949 114.88 7.71513C114.874 6.87461 114.703 6.0994 114.369 5.38949L114.375 5.38891H119.144V9.06274V20.2466ZM154.843 5.75378H159.449C159.222 6.38262 159.108 7.0677 159.108 7.809C159.108 8.5554 159.295 9.28581 159.668 10.0002C160.041 10.704 160.606 11.3331 161.363 11.8876C162.108 12.4265 163.041 12.8596 164.159 13.187C164.101 13.2014 164.042 13.216 163.985 13.2311C163.825 13.2717 163.671 13.3097 163.523 13.3464C162.541 13.5894 161.792 13.7749 161.116 14.2659C160.337 14.831 160.057 15.1078 159.684 15.8542C159.311 16.6006 159.119 17.4109 159.108 18.2853C159.114 19.1258 159.284 19.901 159.619 20.6109L159.613 20.6115H154.843V16.9376V5.75378Z" fill="white" fill-opacity="0.3"/>
<path fill-rule="evenodd" clip-rule="evenodd" d="M198.263 14.1129C197.517 13.574 196.585 13.1408 195.466 12.8135C195.525 12.7991 195.583 12.7844 195.641 12.7694C195.8 12.7288 195.954 12.6907 196.102 12.654C197.084 12.4111 197.834 12.2255 198.51 11.7346C199.288 11.1695 199.569 10.8927 199.942 10.1463C200.315 9.39991 200.507 8.58953 200.517 7.71517C200.511 6.87464 200.341 6.09941 200.007 5.3895L200.013 5.38889H204.782V9.06272V20.2466H200.176C200.404 19.6178 200.517 18.9327 200.517 18.1915C200.517 17.4451 200.331 16.7147 199.958 16.0002C199.585 15.2965 199.02 14.6674 198.263 14.1129ZM189.663 0.795155L189.68 0.813734C188.337 0.814604 186.896 0.830954 185.698 1.13058C184.419 1.45046 182.879 1.94778 181.929 2.63873C180.972 3.33454 180.044 4.33539 179.813 7.45926H185.136C185.253 6.62755 185.685 5.99311 186.431 5.55593C187.177 5.12941 188.328 5.08947 189.853 5.08947C191.324 5.08947 192.438 5.19339 193.226 5.74786C194.015 6.31299 194.42 6.96876 194.442 7.71517C194.431 8.38693 194.207 8.93607 193.77 9.36259C193.333 9.79977 192.763 10.1197 192.059 10.3222C191.356 10.5355 190.604 10.6421 189.805 10.6421H186.319V12.3056V13.2492V15.2165H189.805C191.116 15.2165 192.139 15.4351 192.875 15.8723C193.61 16.3201 193.983 16.9119 193.994 17.6477C193.983 18.3514 193.631 18.9699 192.939 19.503C192.421 19.8949 191.729 20.1428 190.86 20.2466H188.802C188.062 20.1625 187.426 19.984 186.895 19.7109C186.116 19.3271 185.679 18.7353 185.584 17.9356L180.147 17.9356C180.221 19.471 180.728 20.7826 181.666 21.8702C182.604 22.9685 183.856 23.8055 185.423 24.3813C186.862 24.9236 188.461 25.2152 190.219 25.256L190.221 25.261L190.493 25.2603C190.546 25.2608 190.599 25.261 190.652 25.261C190.749 25.261 190.845 25.2604 190.941 25.2593L227.725 25.1722V24.9229H227.904V5.75378H234.036V18.1776C234.046 20.6875 234.668 22.4862 235.902 23.5738C237.146 24.6614 238.818 25.2052 240.92 25.2052C241.056 25.2052 241.571 25.209 242.331 25.2146L242.332 25.2147C245.936 25.2413 255.057 25.3088 255.6 25.2052L255.583 25.1867C256.926 25.1859 258.367 25.1695 259.565 24.8699C260.844 24.55 262.384 24.0527 263.334 23.3617C264.291 22.6659 265.218 21.6651 265.45 18.5412H260.127C260.01 19.3729 259.578 20.0074 258.832 20.4445C258.086 20.8711 256.934 20.911 255.41 20.911C253.939 20.911 252.825 20.8071 252.036 20.2526C251.247 19.6875 250.842 19.0317 250.821 18.2853C250.832 17.6135 251.056 17.0644 251.493 16.6379C251.93 16.2007 252.5 15.8808 253.203 15.6782C253.907 15.465 254.659 15.3583 255.458 15.3583H258.944V13.6949V12.7513V10.784H255.458C254.147 10.784 253.124 10.5654 252.388 10.1282C251.653 9.68034 251.279 9.08855 251.269 8.35281C251.279 7.64906 251.631 7.03061 252.324 6.49746C252.841 6.10544 253.534 5.85755 254.403 5.75378H256.46C257.201 5.83782 257.837 6.01641 258.368 6.28954C259.146 6.6734 259.583 7.26519 259.679 8.06491H265.116C265.041 6.52945 264.535 5.21791 263.597 4.1303C262.659 3.03202 261.407 2.19498 259.84 1.61918C258.4 1.07687 256.802 0.785305 255.044 0.74448L255.042 0.739412L254.76 0.74008C254.71 0.739689 254.661 0.739494 254.611 0.739494C254.518 0.739494 254.425 0.740026 254.332 0.741091L217.538 0.828171V1.07752H217.359V20.2466L211.228 20.2466V7.82277C211.217 5.31291 210.595 3.51417 209.361 2.42657C208.117 1.33896 206.445 0.795155 204.343 0.795155C204.207 0.795155 203.692 0.791346 202.932 0.785717H202.931C199.328 0.759041 190.206 0.691528 189.663 0.795155ZM240.481 5.75378H245.086C244.859 6.38262 244.745 7.0677 244.745 7.809C244.745 8.5554 244.932 9.28581 245.305 10.0002C245.678 10.704 246.243 11.3331 247 11.8876C247.746 12.4265 248.678 12.8596 249.796 13.187C249.738 13.2014 249.68 13.216 249.622 13.2311C249.462 13.2717 249.309 13.3097 249.16 13.3464C248.178 13.5894 247.429 13.7749 246.753 14.2659C245.975 14.831 245.694 15.1078 245.321 15.8542C244.948 16.6006 244.756 17.4109 244.745 18.2853C244.751 19.1258 244.922 19.901 245.256 20.6109L245.25 20.6115H240.481V16.9376V5.75378Z" fill="white" fill-opacity="0.3"/>
<path fill-rule="evenodd" clip-rule="evenodd" d="M283.9 14.1129C283.154 13.574 282.222 13.1408 281.103 12.8135C281.162 12.7991 281.22 12.7844 281.278 12.7694C281.437 12.7288 281.591 12.6907 281.74 12.654C282.721 12.4111 283.471 12.2255 284.147 11.7346C284.925 11.1695 285.206 10.8927 285.579 10.1463C285.952 9.39991 286.144 8.58953 286.155 7.71517C286.149 6.87463 285.978 6.0994 285.644 5.38947L285.65 5.38889H290.419V9.06272V20.2466H285.814C286.041 19.6178 286.155 18.9327 286.155 18.1915C286.155 17.4451 285.968 16.7147 285.595 16.0002C285.222 15.2965 284.657 14.6674 283.9 14.1129ZM275.3 0.795155L275.317 0.813734C273.974 0.814606 272.533 0.830971 271.335 1.13058C270.056 1.45046 268.516 1.94778 267.566 2.63873C266.609 3.33454 265.681 4.33539 265.45 7.45926H270.773C270.89 6.62755 271.322 5.99311 272.068 5.55593C272.814 5.12941 273.966 5.08947 275.49 5.08947C276.961 5.08947 278.075 5.19339 278.864 5.74786C279.652 6.31299 280.057 6.96876 280.079 7.71517C280.068 8.38693 279.844 8.93607 279.407 9.36259C278.97 9.79976 278.4 10.1197 277.696 10.3222C276.993 10.5355 276.241 10.6421 275.442 10.6421H271.956V12.3055V13.2492V15.2165H275.442C276.753 15.2165 277.776 15.4351 278.512 15.8723C279.247 16.3201 279.62 16.9119 279.631 17.6477C279.62 18.3514 279.269 18.9699 278.576 19.503C278.059 19.8949 277.366 20.1428 276.497 20.2466H274.439C273.699 20.1625 273.063 19.984 272.532 19.7109C271.754 19.3271 271.317 18.7353 271.221 17.9356L265.784 17.9356C265.858 19.471 266.365 20.7826 267.303 21.8702C268.241 22.9685 269.493 23.8055 271.06 24.3813C272.499 24.9236 274.098 25.2152 275.856 25.256L275.858 25.261L276.13 25.2603C276.183 25.2608 276.236 25.261 276.289 25.261C276.386 25.261 276.482 25.2604 276.579 25.2592L313.362 25.1722V24.9229H313.541V5.75378H319.672V18.1776C319.683 20.6875 320.305 22.4862 321.539 23.5738C322.783 24.6614 324.455 25.2052 326.557 25.2052C326.693 25.2052 327.208 25.209 327.968 25.2146L327.969 25.2147C331.573 25.2413 340.694 25.3088 341.237 25.2052L341.22 25.1867C342.563 25.1859 344.004 25.1695 345.202 24.8699C346.481 24.55 348.021 24.0527 348.971 23.3617C349.928 22.6659 350.856 21.6651 351.087 18.5412H345.764C345.647 19.3729 345.215 20.0074 344.469 20.4445C343.723 20.8711 342.572 20.911 341.047 20.911C339.576 20.911 338.462 20.8071 337.673 20.2526C336.885 19.6875 336.48 19.0317 336.458 18.2853C336.469 17.6135 336.693 17.0644 337.13 16.6379C337.567 16.2007 338.137 15.8808 338.841 15.6782C339.544 15.465 340.296 15.3583 341.095 15.3583H344.581V13.6949V12.7513V10.784H341.095C339.784 10.784 338.761 10.5654 338.025 10.1282C337.29 9.68034 336.917 9.08855 336.906 8.35281C336.917 7.64906 337.268 7.03061 337.961 6.49746C338.479 6.10544 339.172 5.85755 340.041 5.75378H342.097C342.838 5.83782 343.474 6.01641 344.005 6.28954C344.783 6.6734 345.22 7.26519 345.316 8.06491H350.753C350.679 6.52945 350.172 5.21791 349.234 4.1303C348.296 3.03202 347.044 2.19498 345.477 1.61918C344.038 1.07685 342.439 0.785278 340.681 0.744474L340.679 0.739412L340.397 0.740078C340.348 0.739689 340.298 0.739494 340.248 0.739494C340.155 0.739494 340.062 0.740026 339.97 0.741091L303.175 0.828171V1.07752H302.996V20.2466L296.864 20.2466V7.82277C296.854 5.31291 296.232 3.51417 294.998 2.42657C293.754 1.33896 292.082 0.795155 289.98 0.795155C289.844 0.795155 289.329 0.791346 288.569 0.785717H288.568C284.965 0.759041 275.843 0.691528 275.3 0.795155ZM326.118 5.75378H330.724C330.496 6.38262 330.382 7.0677 330.382 7.809C330.382 8.5554 330.569 9.28581 330.942 10.0002C331.315 10.704 331.88 11.3331 332.637 11.8876C333.383 12.4265 334.315 12.8596 335.434 13.187C335.375 13.2014 335.317 13.216 335.259 13.2311C335.1 13.2717 334.946 13.3097 334.797 13.3464C333.816 13.5894 333.066 13.7749 332.39 14.2659C331.612 14.831 331.331 15.1078 330.958 15.8542C330.585 16.6006 330.393 17.4109 330.382 18.2853C330.389 19.1258 330.559 19.901 330.893 20.6109L330.887 20.6115H326.118V16.9376V5.75378Z" fill="white" fill-opacity="0.3"/>
<path fill-rule="evenodd" clip-rule="evenodd" d="M369.537 14.1129C368.791 13.574 367.859 13.1408 366.741 12.8135C366.799 12.7991 366.857 12.7844 366.915 12.7694C367.075 12.7288 367.228 12.6907 367.377 12.654C368.359 12.4111 369.108 12.2255 369.784 11.7346C370.562 11.1695 370.843 10.8927 371.216 10.1463C371.589 9.39991 371.781 8.58953 371.792 7.71517C371.786 6.87464 371.616 6.09941 371.281 5.3895L371.287 5.38889H376.057V9.06272V20.2466H371.451C371.678 19.6178 371.792 18.9327 371.792 18.1915C371.792 17.4451 371.605 16.7147 371.232 16.0002C370.859 15.2965 370.294 14.6674 369.537 14.1129ZM360.937 0.795155L360.954 0.813734C359.611 0.814604 358.17 0.830952 356.972 1.13058C355.693 1.45046 354.153 1.94778 353.203 2.63873C352.246 3.33454 351.319 4.33539 351.087 7.45926H356.41C356.527 6.62755 356.959 5.99311 357.705 5.55593C358.452 5.12941 359.603 5.08947 361.127 5.08947C362.598 5.08947 363.712 5.19339 364.501 5.74786C365.29 6.31299 365.695 6.96876 365.716 7.71517C365.705 8.38693 365.481 8.93607 365.044 9.36259C364.607 9.79976 364.037 10.1197 363.334 10.3222C362.63 10.5355 361.879 10.6421 361.079 10.6421H357.593V12.3055V13.2492V15.2165H361.079C362.39 15.2165 363.414 15.4351 364.149 15.8723C364.885 16.3201 365.258 16.9119 365.268 17.6477C365.258 18.3514 364.906 18.9699 364.213 19.503C363.696 19.8949 363.003 20.1428 362.135 20.2466H360.076C359.336 20.1625 358.7 19.984 358.169 19.7109C357.391 19.3271 356.954 18.7353 356.858 17.9356L351.421 17.9356C351.496 19.471 352.002 20.7826 352.94 21.8702C353.878 22.9685 355.131 23.8055 356.697 24.3813C358.137 24.9236 359.736 25.2152 361.494 25.256L361.496 25.261L361.767 25.2603C361.82 25.2608 361.873 25.261 361.926 25.261C362.023 25.261 362.12 25.2604 362.216 25.2593L398.999 25.1722V24.9229H399.179V5.75378H405.31V18.1776C405.321 20.6875 405.943 22.4862 407.177 23.5738C408.421 24.6614 410.093 25.2052 412.195 25.2052C412.331 25.2052 412.846 25.209 413.606 25.2146L413.607 25.2147C417.211 25.2413 426.332 25.3088 426.875 25.2052L426.858 25.1867C428.201 25.1859 429.642 25.1695 430.84 24.8699C432.119 24.55 433.659 24.0527 434.609 23.3617C435.566 22.6659 436.493 21.6651 436.725 18.5412H431.402C431.285 19.3729 430.853 20.0074 430.107 20.4445C429.36 20.8711 428.209 20.911 426.685 20.911C425.214 20.911 424.1 20.8071 423.311 20.2526C422.522 19.6875 422.117 19.0317 422.096 18.2853C422.107 17.6135 422.331 17.0644 422.768 16.6379C423.205 16.2007 423.775 15.8808 424.478 15.6782C425.182 15.465 425.933 15.3583 426.733 15.3583H430.219V13.6949V12.7513V10.784H426.733C425.422 10.784 424.398 10.5654 423.663 10.1282C422.927 9.68034 422.554 9.08855 422.544 8.35281C422.554 7.64906 422.906 7.03061 423.599 6.49746C424.116 6.10544 424.809 5.85755 425.678 5.75378H427.735C428.476 5.83782 429.112 6.01641 429.643 6.28954C430.421 6.6734 430.858 7.26519 430.954 8.06491H436.391C436.316 6.52945 435.81 5.21791 434.872 4.1303C433.934 3.03202 432.681 2.19498 431.115 1.61918C429.675 1.07687 428.077 0.785305 426.319 0.74448L426.317 0.739412L426.035 0.74008C426.012 0.739899 425.989 0.739758 425.966 0.73966C425.939 0.73955 425.913 0.739494 425.886 0.739494C425.793 0.739494 425.7 0.740026 425.607 0.741091L388.813 0.828171V1.07752H388.633V20.2466L382.502 20.2466V7.82277C382.491 5.31291 381.869 3.51417 380.636 2.42657C379.392 1.33896 377.719 0.795155 375.618 0.795155C375.481 0.795155 374.966 0.791346 374.206 0.785717H374.206C370.602 0.759041 361.481 0.691528 360.937 0.795155ZM411.756 5.75378H416.361C416.134 6.38262 416.02 7.0677 416.02 7.809C416.02 8.5554 416.207 9.28581 416.58 10.0002C416.953 10.704 417.518 11.3331 418.275 11.8876C419.021 12.4265 419.953 12.8596 421.071 13.187C421.013 13.2014 420.954 13.216 420.897 13.2311C420.737 13.2717 420.584 13.3097 420.435 13.3464C419.453 13.5894 418.704 13.7749 418.028 14.2659C417.25 14.831 416.969 15.1078 416.596 15.8542C416.223 16.6006 416.031 17.4109 416.02 18.2853C416.026 19.1258 416.196 19.901 416.531 20.6109L416.525 20.6115H411.756V16.9376V5.75378Z" fill="white" fill-opacity="0.3"/>
<path fill-rule="evenodd" clip-rule="evenodd" d="M455.175 14.1129C454.429 13.574 453.497 13.1408 452.378 12.8135C452.437 12.7991 452.495 12.7844 452.553 12.7694C452.712 12.7288 452.866 12.6907 453.015 12.654C453.996 12.4111 454.746 12.2255 455.422 11.7346C456.2 11.1695 456.481 10.8927 456.854 10.1463C457.227 9.39991 457.419 8.58953 457.43 7.71517C457.423 6.87464 457.253 6.09941 456.919 5.3895L456.925 5.38889H461.694V9.06272V20.2466H457.088C457.316 19.6178 457.43 18.9327 457.43 18.1915C457.43 17.4451 457.243 16.7147 456.87 16.0002C456.497 15.2965 455.932 14.6674 455.175 14.1129ZM446.575 0.795155L446.592 0.813734C445.249 0.814604 443.808 0.830952 442.61 1.13058C441.331 1.45046 439.791 1.94778 438.841 2.63873C437.884 3.33454 436.956 4.33539 436.725 7.45926H442.048C442.165 6.62755 442.597 5.99311 443.343 5.55593C444.089 5.12941 445.24 5.08947 446.765 5.08947C448.236 5.08947 449.35 5.19339 450.138 5.74786C450.927 6.31299 451.332 6.96876 451.354 7.71517C451.343 8.38693 451.119 8.93607 450.682 9.36259C450.245 9.79976 449.675 10.1197 448.971 10.3222C448.268 10.5355 447.516 10.6421 446.717 10.6421H443.231V12.3055V13.2492V15.2165H446.717C448.028 15.2165 449.051 15.4351 449.787 15.8723C450.522 16.3201 450.895 16.9119 450.906 17.6477C450.895 18.3514 450.544 18.9699 449.851 19.503C449.334 19.8949 448.641 20.1428 447.772 20.2466H445.714C444.974 20.1625 444.338 19.984 443.807 19.7109C443.029 19.3271 442.592 18.7353 442.496 17.9356L437.059 17.9356C437.133 19.471 437.64 20.7826 438.578 21.8702C439.516 22.9685 440.768 23.8055 442.335 24.3813C443.774 24.9236 445.373 25.2152 447.132 25.256L447.134 25.261L447.405 25.2603C447.458 25.2608 447.511 25.261 447.564 25.261C447.661 25.261 447.757 25.2604 447.853 25.2593L484.637 25.1722V24.9229H484.817V5.75378H490.948V18.1776C490.959 20.6875 491.581 22.4862 492.814 23.5738C494.058 24.6614 495.731 25.2052 497.832 25.2052C497.969 25.2052 498.484 25.209 499.244 25.2146L499.244 25.2147C502.848 25.2413 511.969 25.3088 512.513 25.2052L512.496 25.1867C513.839 25.1859 515.279 25.1695 516.477 24.8699C517.757 24.55 519.296 24.0527 520.246 23.3617C521.203 22.6659 522.131 21.6651 522.363 18.5412H517.039C516.922 19.3729 516.49 20.0074 515.744 20.4445C514.998 20.8711 513.847 20.911 512.323 20.911C510.852 20.911 509.738 20.8071 508.949 20.2526C508.16 19.6875 507.755 19.0317 507.734 18.2853C507.744 17.6135 507.968 17.0644 508.405 16.6379C508.842 16.2007 509.413 15.8808 510.116 15.6782C510.82 15.465 511.571 15.3583 512.371 15.3583H515.856V13.6949V12.7513V10.784H512.371C511.059 10.784 510.036 10.5654 509.301 10.1282C508.565 9.68034 508.192 9.08855 508.181 8.35281C508.192 7.64906 508.544 7.03061 509.237 6.49746C509.754 6.10544 510.447 5.85755 511.316 5.75378H513.372C514.113 5.83782 514.749 6.01641 515.281 6.28954C516.059 6.6734 516.496 7.26519 516.592 8.06491H522.029C521.954 6.52945 521.448 5.21791 520.51 4.1303C519.572 3.03202 518.319 2.19498 516.752 1.61918C515.313 1.07687 513.714 0.785305 511.956 0.74448L511.954 0.739412L511.673 0.74008C511.65 0.739899 511.626 0.739758 511.603 0.73966C511.577 0.73955 511.55 0.739494 511.524 0.739494C511.43 0.739494 511.337 0.740026 511.245 0.741091L474.451 0.828171V1.07752H474.271V20.2466L468.14 20.2466V7.82277C468.129 5.31291 467.507 3.51417 466.274 2.42657C465.029 1.33896 463.357 0.795155 461.255 0.795155C461.119 0.795155 460.604 0.791346 459.844 0.785717H459.844C456.24 0.759041 447.119 0.691528 446.575 0.795155ZM497.393 5.75378H501.999C501.772 6.38262 501.658 7.0677 501.658 7.809C501.658 8.5554 501.844 9.28581 502.217 10.0002C502.591 10.704 503.155 11.3331 503.912 11.8876C504.658 12.4265 505.591 12.8596 506.709 13.187C506.65 13.2014 506.592 13.216 506.535 13.2311C506.375 13.2717 506.221 13.3097 506.073 13.3464C505.091 13.5894 504.341 13.7749 503.665 14.2659C502.887 14.831 502.606 15.1078 502.233 15.8542C501.86 16.6006 501.668 17.4109 501.658 18.2853C501.664 19.1258 501.834 19.901 502.168 20.6109L502.163 20.6115H497.393V16.9376V5.75378Z" fill="white" fill-opacity="0.3"/>
<path fill-rule="evenodd" clip-rule="evenodd" d="M540.813 14.1129C540.067 13.574 539.135 13.1408 538.016 12.8135C538.075 12.7991 538.133 12.7844 538.191 12.7694C538.35 12.7288 538.504 12.6908 538.652 12.6541L538.652 12.654C539.634 12.4111 540.384 12.2255 541.06 11.7346C541.838 11.1695 542.119 10.8927 542.492 10.1463C542.865 9.39991 543.057 8.58953 543.067 7.71517C543.061 6.87463 542.891 6.0994 542.557 5.38948L542.562 5.38889H547.332V9.06272V20.2466H542.726C542.954 19.6178 543.067 18.9327 543.067 18.1915C543.067 17.4451 542.881 16.7147 542.508 16.0002C542.135 15.2965 541.57 14.6674 540.813 14.1129ZM532.212 0.795155L532.229 0.813734C530.887 0.814606 529.446 0.830969 528.248 1.13058C526.969 1.45046 525.429 1.94778 524.479 2.63873C523.522 3.33454 522.594 4.33539 522.363 7.45926H527.686C527.803 6.62755 528.235 5.99311 528.981 5.55593C529.727 5.12941 530.878 5.08947 532.402 5.08947C533.873 5.08947 534.987 5.19339 535.776 5.74786C536.565 6.31299 536.97 6.96876 536.991 7.71517C536.981 8.38693 536.757 8.93607 536.32 9.36259C535.883 9.79977 535.312 10.1197 534.609 10.3222C533.905 10.5355 533.154 10.6421 532.354 10.6421H528.869V12.3056V13.2492V15.2165H532.354C533.666 15.2165 534.689 15.4351 535.424 15.8723C536.16 16.3201 536.533 16.9119 536.544 17.6477C536.533 18.3514 536.181 18.9699 535.488 19.503C534.971 19.8949 534.278 20.1428 533.41 20.2466H531.352C530.611 20.1625 529.976 19.984 529.444 19.7109C528.666 19.3271 528.229 18.7353 528.133 17.9356L522.696 17.9356C522.771 19.471 523.277 20.7826 524.215 21.8702C525.153 22.9685 526.406 23.8055 527.973 24.3813C529.412 24.9236 531.011 25.2152 532.769 25.256L532.771 25.261L533.043 25.2603C533.095 25.2608 533.148 25.261 533.201 25.261C533.298 25.261 533.395 25.2604 533.491 25.2593L570.274 25.1722V24.9229H570.454V5.75378H576.586V18.1776C576.596 20.6875 577.218 22.4862 578.452 23.5738C579.696 24.6614 581.369 25.2052 583.47 25.2052C583.606 25.2052 584.121 25.209 584.881 25.2146L584.882 25.2147C588.486 25.2413 597.607 25.3088 598.151 25.2052L598.133 25.1867C599.476 25.1859 600.917 25.1695 602.115 24.8699C603.394 24.55 604.934 24.0527 605.884 23.3617C606.841 22.6659 607.769 21.6651 608 18.5412H602.677C602.56 19.3729 602.128 20.0074 601.382 20.4445C600.636 20.8711 599.485 20.911 597.96 20.911C596.489 20.911 595.375 20.8071 594.587 20.2526C593.798 19.6875 593.393 19.0317 593.371 18.2853C593.382 17.6135 593.606 17.0644 594.043 16.6379C594.48 16.2007 595.05 15.8808 595.754 15.6782C596.457 15.465 597.209 15.3583 598.008 15.3583H601.494V13.6949V12.7513V10.784H598.008C596.697 10.784 595.674 10.5654 594.938 10.1282C594.203 9.68034 593.83 9.08855 593.819 8.35281C593.83 7.64906 594.182 7.03061 594.874 6.49746C595.392 6.10544 596.085 5.85755 596.954 5.75378H599.01C599.751 5.83782 600.387 6.01641 600.918 6.28954C601.696 6.6734 602.134 7.26519 602.229 8.06491H607.666C607.592 6.52945 607.085 5.21791 606.147 4.1303C605.209 3.03202 603.957 2.19498 602.39 1.61918C600.951 1.07685 599.352 0.78528 597.594 0.744474L597.592 0.739412L597.31 0.740078C597.261 0.739689 597.211 0.739494 597.161 0.739494C597.068 0.739494 596.975 0.740026 596.883 0.741091L560.089 0.828171V1.07752H559.909V20.2466L553.777 20.2466V7.82277C553.767 5.31291 553.145 3.51417 551.911 2.42657C550.667 1.33896 548.994 0.795155 546.893 0.795155C546.756 0.795155 546.242 0.791346 545.481 0.785717H545.481C541.877 0.759041 532.756 0.691528 532.212 0.795155ZM583.031 5.75378H587.637C587.409 6.38262 587.296 7.0677 587.296 7.809C587.296 8.5554 587.482 9.28581 587.855 10.0002C588.228 10.704 588.793 11.3331 589.55 11.8876C590.296 12.4265 591.228 12.8596 592.347 13.187C592.288 13.2014 592.23 13.216 592.172 13.2311C592.013 13.2717 591.859 13.3097 591.711 13.3464C590.729 13.5894 589.979 13.7749 589.303 14.2659C588.525 14.831 588.244 15.1078 587.871 15.8542C587.498 16.6006 587.306 17.4109 587.296 18.2853C587.302 19.1258 587.472 19.901 587.806 20.6109L587.8 20.6115H583.031V16.9376V5.75378Z" fill="white" fill-opacity="0.3"/>
</svg>
