<svg width="256" height="256" viewBox="0 0 256 256" fill="none" xmlns="http://www.w3.org/2000/svg">
<path fill-rule="evenodd" clip-rule="evenodd" d="M92.7603 -1.93072e-05C69.8071 -1.93072e-05 51.1999 18.6073 51.1999 41.5605V51.1999H41.5605C18.6072 51.1999 -4.708e-06 69.8072 -4.708e-06 92.7604V214.439C-4.708e-06 237.393 18.6073 256 41.5605 256H163.24C186.193 256 204.8 237.393 204.8 214.439V204.8H214.439C237.393 204.8 256 186.193 256 163.239V41.5604C256 18.6072 237.393 -1.93072e-05 214.439 -1.93072e-05H92.7603ZM204.8 204.8V153.6C204.8 97.046 158.954 51.1999 102.4 51.1999H51.1999V102.4C51.1999 158.954 97.046 204.8 153.6 204.8H204.8Z" fill="white"/>
</svg>
