<svg width="28" height="28" viewBox="0 0 28 28" fill="none" xmlns="http://www.w3.org/2000/svg">
<path d="M17.1835 10.1135L14.3674 12.7209L11.7534 7.4754L13.1038 4.45933C13.4451 3.85771 14.0033 3.84976 14.3446 4.45933L17.1835 10.1135Z" fill="#FFA000"/>
<path d="M14.3686 12.7197L3.83496 22.4626L11.7546 7.47534L14.3686 12.7197Z" fill="#F57F17"/>
<path d="M20.2712 6.12569C20.7757 5.64779 21.2951 5.80898 21.4264 6.4878L24.1648 22.331L15.082 27.7536C14.7635 27.9307 13.9188 27.9999 13.9188 27.9999C13.9188 27.9999 13.1506 27.9068 12.8561 27.7456L3.83496 22.4627L20.2712 6.12569Z" fill="#FFCA28"/>
<path d="M11.7546 7.47547L3.83496 22.4627L7.36443 0.556783C7.49684 -0.122032 7.8838 -0.191276 8.2331 0.41035L11.7546 7.47547Z" fill="#FFA000"/>
</svg>
