<svg width="28" height="28" viewBox="0 0 28 28" fill="none" xmlns="http://www.w3.org/2000/svg">
<path d="M6.60669 9.97902H11.8877V10.3967H7.09079V13.5407H11.6017V13.9584H7.09079V17.4102H11.9428V17.8279H6.60669V9.97902ZM12.3608 9.97902H12.922L15.4085 13.4308L17.95 9.97902L21.4068 5.59448L15.7275 13.7935L18.6541 17.8279H18.071L15.4085 14.1563L12.7349 17.8279H12.1628L15.1114 13.7935L12.3608 9.97902ZM18.8631 10.3967V9.97902H24.8813V10.3967H22.1088V17.8279H21.6247V10.3967H18.8631Z" fill="white"/>
<path d="M0 9.979H0.605121L8.94939 22.4054L5.5011 17.8279L0.506101 10.5726L0.484097 17.8279H0V9.979Z" fill="white"/>
<path d="M24.8328 17.2841C24.9328 17.2841 25.0058 17.2079 25.0058 17.1093C25.0058 17.0107 24.9328 16.9345 24.8328 16.9345C24.7338 16.9345 24.6597 17.0107 24.6597 17.1093C24.6597 17.2079 24.7338 17.2841 24.8328 17.2841ZM25.3084 16.8242C25.3084 17.1152 25.5192 17.3052 25.8265 17.3052C26.1538 17.3052 26.3516 17.1093 26.3516 16.769V15.5711H26.0879V16.7679C26.0879 16.9568 25.9925 17.0577 25.8241 17.0577C25.6734 17.0577 25.571 16.9638 25.5675 16.8242H25.3084ZM26.6966 16.8089C26.7155 17.1116 26.9686 17.3052 27.3454 17.3052C27.7481 17.3052 28 17.1023 28 16.7784C28 16.5238 27.8564 16.383 27.5079 16.3021L27.3207 16.2563C27.0993 16.2047 27.0098 16.1355 27.0098 16.0146C27.0098 15.8621 27.1488 15.7623 27.3572 15.7623C27.555 15.7623 27.6916 15.8597 27.7163 16.0158H27.973C27.9577 15.7307 27.7057 15.53 27.3607 15.53C26.9898 15.53 26.7425 15.7307 26.7425 16.0322C26.7425 16.2809 26.8827 16.4288 27.19 16.5004L27.409 16.5532C27.6339 16.606 27.7328 16.6834 27.7328 16.8125C27.7328 16.9626 27.5773 17.0718 27.3654 17.0718C27.1382 17.0718 26.9804 16.9697 26.958 16.8089H26.6966Z" fill="white"/>
</svg>
