<svg width="28" height="28" viewBox="0 0 28 28" fill="none" xmlns="http://www.w3.org/2000/svg">
<path d="M12.8536 0.298721C13.5479 -0.0986755 14.4522 -0.100471 15.1459 0.298721C18.6357 2.27064 22.1266 4.23947 25.6158 6.21259C26.2721 6.58227 26.711 7.31264 26.7044 8.06884V19.9327C26.7092 20.7202 26.2269 21.468 25.5345 21.8293C22.0562 23.7904 18.5796 25.7538 15.1019 27.7149C14.3933 28.12 13.4708 28.0888 12.7843 27.6504C11.7415 27.0459 10.6969 26.4444 9.65402 25.8405C9.44091 25.7134 9.20068 25.6123 9.0502 25.4057C9.18323 25.2264 9.42107 25.204 9.61433 25.1258C10.0496 24.9873 10.4494 24.7652 10.8493 24.5496C10.9504 24.4803 11.0739 24.5069 11.1708 24.5688C12.0625 25.0801 12.9464 25.6062 13.8411 26.1126C14.032 26.2228 14.2252 26.0765 14.3884 25.9856C17.8017 24.0564 21.2192 22.1346 24.6319 20.2048C24.7584 20.144 24.8283 20.0098 24.818 19.8713C24.8204 15.9576 24.8186 12.0433 24.8192 8.12967C24.8337 7.9725 24.7427 7.828 24.6006 7.76368C21.1343 5.81161 17.6699 3.85654 14.2042 1.90396C14.1441 1.86268 14.073 1.84053 14.0001 1.84043C13.9273 1.84032 13.8561 1.86226 13.7959 1.90336C10.3302 3.85654 6.86637 5.8134 3.40069 7.76538C3.25909 7.8298 3.16405 7.97191 3.1809 8.12967C3.1815 12.0433 3.1809 15.9576 3.1809 19.8718C3.17489 19.9394 3.18974 20.0072 3.22344 20.0661C3.25713 20.125 3.30807 20.1722 3.36938 20.2012C4.29421 20.7257 5.22024 21.2464 6.14567 21.7691C6.66702 22.0497 7.30714 22.2164 7.88155 22.0014C8.38844 21.8196 8.74375 21.3024 8.73408 20.7642C8.73886 16.8734 8.73168 12.982 8.73767 9.09179C8.725 8.91907 8.88885 8.77637 9.05678 8.79263C9.50115 8.78963 9.94611 8.78664 10.3905 8.79382C10.576 8.78963 10.7036 8.97562 10.6807 9.14963C10.6789 13.0651 10.6855 16.9806 10.6777 20.896C10.6789 21.9395 10.2502 23.075 9.28495 23.5855C8.09585 24.2015 6.62613 24.0709 5.4514 23.4802C4.43442 22.9726 3.46392 22.3736 2.46499 21.8298C1.77082 21.4705 1.29085 20.7197 1.29574 19.9328V8.06884C1.28846 7.29698 1.74489 6.55335 2.42161 6.18906C5.89935 4.22641 9.37649 2.26227 12.8536 0.298721Z" fill="#8CC84B"/>
<path d="M15.8876 8.51682C17.4043 8.41919 19.0281 8.45898 20.393 9.20621C21.4498 9.77881 22.0357 10.9806 22.0543 12.1546C22.0248 12.313 21.8593 12.4003 21.7081 12.3895C21.268 12.3889 20.8278 12.3954 20.3878 12.3865C20.2011 12.3937 20.0926 12.2215 20.0691 12.0565C19.9427 11.4947 19.6363 10.9384 19.1076 10.6674C18.296 10.2611 17.3549 10.2815 16.4698 10.29C15.8237 10.3243 15.129 10.3802 14.5816 10.7602C14.1614 11.048 14.0337 11.629 14.1837 12.0969C14.3251 12.4328 14.7129 12.5412 15.0302 12.6412C16.8582 13.1192 18.7952 13.0717 20.5882 13.7008C21.3305 13.9573 22.0567 14.4559 22.3108 15.2332C22.6432 16.2749 22.4975 17.52 21.7564 18.3563C21.1553 19.0445 20.28 19.419 19.4069 19.6225C18.2454 19.8815 17.0401 19.888 15.8605 19.7731C14.7514 19.6466 13.5972 19.3552 12.741 18.5995C12.0088 17.9638 11.6512 16.9732 11.6867 16.0172C11.6952 15.8557 11.856 15.7431 12.0106 15.7564C12.4538 15.7528 12.897 15.7516 13.3401 15.757C13.5171 15.7443 13.6484 15.8973 13.6575 16.0642C13.7392 16.5994 13.9404 17.1611 14.4071 17.4784C15.3078 18.0595 16.4379 18.0197 17.4693 18.036C18.3237 17.9981 19.2828 17.9866 19.9801 17.4219C20.348 17.0998 20.457 16.5609 20.3575 16.0973C20.2498 15.7059 19.8404 15.5235 19.4888 15.4042C17.6843 14.8334 15.7256 15.0405 13.9386 14.395C13.2131 14.1386 12.5115 13.6539 12.2328 12.9085C11.8439 11.8537 12.0221 10.5489 12.8409 9.74082C13.6393 8.93705 14.7918 8.62751 15.8876 8.51672V8.51682Z" fill="#8CC84B"/>
</svg>
