<svg width="28" height="28" viewBox="0 0 28 28" fill="none" xmlns="http://www.w3.org/2000/svg">
<path d="M14.0002 16.2698C15.2607 16.2698 16.2826 15.2536 16.2826 14.0001C16.2826 12.7465 15.2607 11.7303 14.0002 11.7303C12.7396 11.7303 11.7178 12.7465 11.7178 14.0001C11.7178 15.2536 12.7396 16.2698 14.0002 16.2698Z" fill="#61DAFB"/>
<path fill-rule="evenodd" clip-rule="evenodd" d="M3.26826 12.8057C2.75068 13.2704 2.58055 13.6755 2.58055 14C2.58055 14.3245 2.75068 14.7296 3.26826 15.1942C3.7855 15.6586 4.58065 16.1146 5.63384 16.5145C7.7344 17.3121 10.6921 17.8226 14 17.8226C17.308 17.8226 20.2656 17.3121 22.3662 16.5145C23.4194 16.1146 24.2145 15.6586 24.7318 15.1942C25.2494 14.7296 25.4195 14.3245 25.4195 14C25.4195 13.6755 25.2494 13.2704 24.7318 12.8057C24.2145 12.3414 23.4194 11.8853 22.3662 11.4855C20.2656 10.6879 17.308 10.1774 14 10.1774C10.6921 10.1774 7.7344 10.6879 5.63384 11.4855C4.58065 11.8853 3.7855 12.3414 3.26826 12.8057ZM5.04636 9.93822C7.37833 9.05278 10.5441 8.52234 14 8.52234C17.4559 8.52234 20.6217 9.05278 22.9537 9.93822C24.1167 10.3798 25.1151 10.9258 25.8373 11.5742C26.5592 12.2222 27.0745 13.0404 27.0745 14C27.0745 14.9596 26.5592 15.7778 25.8373 16.4258C25.1151 17.0742 24.1167 17.6201 22.9537 18.0617C20.6217 18.9472 17.4559 19.4776 14 19.4776C10.5441 19.4776 7.37833 18.9472 5.04636 18.0617C3.88328 17.6201 2.88491 17.0742 2.16268 16.4258C1.4408 15.7778 0.925537 14.9596 0.925537 14C0.925537 13.0404 1.4408 12.2222 2.16268 11.5742C2.88491 10.9258 3.88328 10.3798 5.04636 9.93822Z" fill="#61DAFB"/>
<path fill-rule="evenodd" clip-rule="evenodd" d="M9.6808 4.1623C9.01822 3.94914 8.57808 4.0041 8.29197 4.16838C8.00585 4.33265 7.73792 4.68421 7.59226 5.36142C7.44659 6.03869 7.44701 6.95087 7.62524 8.05713C7.98074 10.2637 9.01449 13.065 10.668 15.913C12.3214 18.761 14.2441 21.052 15.988 22.4614C16.8623 23.1681 17.6565 23.6245 18.3191 23.8377C18.9817 24.0509 19.4219 23.9959 19.708 23.8316C19.9941 23.6673 20.262 23.3158 20.4077 22.6386C20.5533 21.9613 20.5529 21.0491 20.3747 19.9429C20.0192 17.7363 18.9854 14.935 17.332 12.087C15.6785 9.23896 13.7558 6.94802 12.0119 5.53856C11.1376 4.83194 10.3434 4.37548 9.6808 4.1623ZM13.0552 4.25721C14.9932 5.8236 17.0388 8.28581 18.7672 11.2629C20.4957 14.24 21.6171 17.2328 22.0122 19.6851C22.2093 20.9082 22.233 22.0417 22.0294 22.9882C21.8258 23.9348 21.3711 24.7851 20.5389 25.2629C19.7068 25.7407 18.7389 25.7071 17.8127 25.4092C16.8867 25.1112 15.9115 24.5241 14.9448 23.7428C13.0067 22.1764 10.9611 19.7142 9.2327 16.7371C7.50427 13.76 6.38282 10.7672 5.98773 8.31492C5.79067 7.09175 5.76695 5.95832 5.97053 5.0118C6.17413 4.06524 6.62884 3.21487 7.461 2.73709C8.29316 2.25932 9.26107 2.29289 10.1872 2.59084C11.1133 2.88877 12.0885 3.47591 13.0552 4.25721Z" fill="#61DAFB"/>
<path fill-rule="evenodd" clip-rule="evenodd" d="M20.4079 5.36136C20.2622 4.68415 19.9943 4.33258 19.7082 4.16831C19.422 4.00404 18.9819 3.94907 18.3193 4.16223C17.6567 4.37541 16.8625 4.83187 15.9882 5.53849C14.2443 6.94795 12.3216 9.23889 10.6682 12.0869C9.01468 14.9349 7.98093 17.7362 7.62543 19.9428C7.4472 21.0491 7.44678 21.9612 7.59245 22.6385C7.7381 23.3157 8.00604 23.6673 8.29216 23.8316C8.57827 23.9958 9.0184 24.0508 9.68099 23.8376C10.3436 23.6245 11.1378 23.168 12.0121 22.4614C13.756 21.0519 15.6787 18.761 17.3322 15.913C18.9856 13.065 20.0194 10.2636 20.3749 8.05707C20.5531 6.95081 20.5535 6.03862 20.4079 5.36136ZM22.0124 8.31485C21.6173 10.7671 20.4959 13.7599 18.7674 16.737C17.039 19.7141 14.9934 22.1763 13.0553 23.7427C12.0887 24.524 11.1135 25.1112 10.1874 25.4091C9.26125 25.707 8.29335 25.7406 7.46119 25.2628C6.62903 24.7851 6.17432 23.9347 5.97072 22.9881C5.76714 22.0416 5.79085 20.9082 5.98792 19.685C6.383 17.2327 7.50445 14.2399 9.23288 11.2628C10.9613 8.28574 13.0069 5.82354 14.945 4.25714C15.9116 3.47584 16.8869 2.8887 17.8129 2.59077C18.7391 2.29283 19.707 2.25925 20.5391 2.73703C21.3713 3.2148 21.826 4.06517 22.0296 5.01173C22.2332 5.95825 22.2095 7.09168 22.0124 8.31485Z" fill="#61DAFB"/>
</svg>
