<svg width="28" height="28" viewBox="0 0 28 28" fill="none" xmlns="http://www.w3.org/2000/svg">
<path d="M19.401 19.2736C20.4343 19.1667 21.2182 18.2759 21.1825 17.2069C21.147 16.138 20.2561 15.2828 19.1872 15.2828H19.116C18.0113 15.3184 17.1562 16.2448 17.1919 17.3494C17.2275 17.8839 17.4413 18.3471 17.7619 18.6678C16.5505 21.0552 14.6977 22.8012 11.9185 24.2621C10.03 25.2598 8.07034 25.6162 6.11067 25.3668C4.50723 25.153 3.26014 24.4404 2.47614 23.2644C1.33601 21.5184 1.22915 19.6299 2.19122 17.7414C2.86825 16.3873 3.93706 15.3896 4.61409 14.8908C4.47158 14.4276 4.25775 13.6437 4.15089 13.0736C-1.01566 16.815 -0.481142 21.8748 1.08664 24.2621C2.26242 26.0438 4.64975 27.1484 7.28645 27.1484C7.99903 27.1484 8.71161 27.0771 9.42429 26.899C13.9851 26.0082 17.4414 23.3 19.401 19.2736ZM25.6722 14.8552C22.9642 11.6839 18.9735 9.93794 14.4127 9.93794H13.8426C13.5219 9.29656 12.8449 8.86891 12.0967 8.86891H12.0253C10.9209 8.90456 10.0658 9.83097 10.1013 10.9357C10.137 12.0046 11.0277 12.8598 12.0967 12.8598H12.1679C12.9517 12.8241 13.6288 12.3253 13.9138 11.6482H14.5552C17.2632 11.6482 19.8286 12.4321 22.1447 13.9644C23.9262 15.1402 25.209 16.6725 25.9215 18.5253C26.5273 20.0219 26.4916 21.4828 25.8502 22.73C24.8526 24.6185 23.178 25.6518 20.9688 25.6518C19.5436 25.6518 18.1896 25.2242 17.4769 24.9035C17.085 25.2598 16.3723 25.8299 15.8735 26.1863C17.4057 26.8989 18.9735 27.2909 20.47 27.2909C23.8906 27.2909 26.4204 25.4023 27.3825 23.5139C28.4157 21.4471 28.3444 17.8839 25.6722 14.8552ZM7.57148 19.8792C7.60714 20.9483 8.49789 21.8034 9.56681 21.8034H9.63812C10.7427 21.7678 11.5978 20.8413 11.5621 19.7367C11.5266 18.6677 10.6357 17.8126 9.56681 17.8126H9.49561C9.42429 17.8126 9.31733 17.8126 9.24623 17.8481C7.78531 15.4252 7.17959 12.7885 7.39342 9.93783C7.53583 7.79988 8.24851 5.94696 9.49561 4.41473C10.5289 3.09632 12.5242 2.45495 13.8783 2.4194C17.6551 2.34809 19.2584 7.05154 19.3654 8.94011C19.8286 9.04697 20.6125 9.29646 21.147 9.47463C20.7193 3.70226 17.1562 0.709106 13.7357 0.709106C10.5289 0.709106 7.57148 3.02523 6.39559 6.44593C4.75661 11.0069 5.82553 15.3896 7.82086 18.846C7.64279 19.0953 7.53583 19.4873 7.57148 19.8793V19.8792Z" fill="#764ABC"/>
</svg>
