<svg width="28" height="28" viewBox="0 0 28 28" fill="none" xmlns="http://www.w3.org/2000/svg">
<path d="M27.8087 13.6566L26.6332 12.929C26.6233 12.8147 26.6122 12.7006 26.5998 12.5866L27.61 11.6444C27.6605 11.5974 27.6981 11.5383 27.7193 11.4727C27.7404 11.4071 27.7444 11.3372 27.7308 11.2696C27.7176 11.2019 27.6872 11.1388 27.6425 11.0863C27.5979 11.0337 27.5406 10.9935 27.476 10.9694L26.1846 10.4866C26.1522 10.375 26.1184 10.2639 26.0834 10.1532L26.889 9.03441C26.9293 8.97848 26.9547 8.91317 26.9627 8.84467C26.9707 8.77617 26.961 8.70677 26.9347 8.64305C26.9083 8.57933 26.8661 8.52341 26.812 8.48062C26.7579 8.43782 26.6938 8.40955 26.6257 8.39852L25.264 8.17704C25.211 8.07379 25.1559 7.97207 25.1004 7.87123L25.6725 6.6153C25.7013 6.55263 25.7135 6.48361 25.708 6.41486C25.7025 6.34611 25.6794 6.27993 25.641 6.22265C25.6029 6.16519 25.5506 6.1185 25.4893 6.08705C25.4279 6.0556 25.3595 6.04045 25.2906 6.04306L23.9085 6.09119C23.8371 6.00178 23.7643 5.91351 23.6902 5.82639L24.0078 4.48023C24.0237 4.41309 24.0221 4.34301 24.0033 4.27665C23.9844 4.21029 23.9488 4.14987 23.9 4.10114C23.8512 4.05237 23.7909 4.01686 23.7245 3.99798C23.6582 3.97911 23.5882 3.9775 23.5211 3.9933L22.1752 4.31059C22.0879 4.23652 21.9994 4.16374 21.9099 4.09229L21.9582 2.71036C21.9608 2.64146 21.9457 2.57306 21.9143 2.51168C21.8829 2.45031 21.8363 2.39802 21.7789 2.35982C21.7216 2.32146 21.6554 2.2984 21.5867 2.29285C21.5179 2.2873 21.4489 2.29943 21.3862 2.3281L20.1306 2.90056C20.0293 2.84466 19.9274 2.78997 19.8248 2.7365L19.6027 1.37459C19.5916 1.30658 19.5633 1.24254 19.5205 1.18853C19.4777 1.13452 19.4219 1.09234 19.3582 1.06597C19.2945 1.0396 19.2252 1.02993 19.1567 1.03787C19.0883 1.04581 19.023 1.07109 18.967 1.11133L17.8475 1.91686C17.7373 1.88186 17.6265 1.84806 17.5148 1.81602L17.0319 0.524432C17.0079 0.459727 16.9676 0.402263 16.9151 0.357532C16.8625 0.312801 16.7994 0.282298 16.7316 0.268937C16.6641 0.255642 16.5942 0.259772 16.5287 0.280936C16.4632 0.3021 16.4042 0.3396 16.3571 0.389903L15.4149 1.40084C15.3009 1.38807 15.1868 1.37691 15.0725 1.36737L14.3449 0.19161C14.3086 0.133022 14.258 0.0846684 14.1978 0.0511349C14.1376 0.0176014 14.0698 0 14.0009 0C13.932 0 13.8643 0.0176014 13.8041 0.0511349C13.7439 0.0846684 13.6933 0.133022 13.657 0.19161L12.9293 1.36737C12.815 1.3769 12.7007 1.38805 12.5867 1.40084L11.6442 0.389903C11.5972 0.339414 11.5381 0.301784 11.4725 0.280594C11.4068 0.259403 11.3369 0.255358 11.2693 0.268842C11.2016 0.282326 11.1386 0.312891 11.0861 0.357629C11.0336 0.402367 10.9935 0.459789 10.9694 0.524432L10.4867 1.81602C10.3748 1.84806 10.2641 1.88208 10.1536 1.91686L9.03427 1.11133C8.97835 1.07091 8.913 1.04551 8.84446 1.03756C8.77592 1.02961 8.70649 1.03938 8.64281 1.06594C8.57919 1.09236 8.52335 1.13457 8.48058 1.18858C8.43781 1.24258 8.40951 1.3066 8.39836 1.37459L8.17633 2.7365C8.07351 2.78976 7.97191 2.84456 7.87052 2.90056L6.61478 2.32799C6.5521 2.29931 6.48312 2.28717 6.41441 2.29274C6.34571 2.29831 6.27958 2.32141 6.22234 2.35982C6.16491 2.398 6.11824 2.45027 6.0868 2.51165C6.05535 2.57303 6.04018 2.64144 6.04275 2.71036L6.09088 4.09229C6.00146 4.16387 5.91301 4.23665 5.82553 4.31059L4.47967 3.99341C4.41254 3.97768 4.3425 3.97932 4.27617 3.99817C4.20984 4.01702 4.14941 4.05246 4.10058 4.10114C4.05173 4.14987 4.01617 4.21029 3.9973 4.27665C3.97842 4.34301 3.97685 4.41309 3.99273 4.48023L4.30981 5.82639C4.2362 5.91356 4.16347 6.00183 4.09205 6.09119L2.70998 6.04306C2.64116 6.04089 2.57291 6.05621 2.51162 6.0876C2.45033 6.11899 2.39801 6.16542 2.35955 6.22254C2.32119 6.27984 2.29814 6.346 2.29257 6.41473C2.287 6.48345 2.2991 6.55246 2.32772 6.61519L2.90019 7.87123C2.84452 7.97207 2.7895 8.07379 2.73613 8.17704L1.37452 8.39852C1.30647 8.40961 1.24239 8.4379 1.18835 8.48071C1.13431 8.52352 1.0921 8.57943 1.06573 8.64312C1.03936 8.70682 1.0297 8.7762 1.03767 8.84468C1.04563 8.91316 1.07096 8.97847 1.11125 9.03441L1.9168 10.1533C1.8818 10.2638 1.84778 10.3747 1.81563 10.4866L0.524125 10.9694C0.459627 10.9937 0.402379 11.034 0.357798 11.0865C0.313217 11.139 0.282779 11.2021 0.269364 11.2696C0.255948 11.3372 0.26 11.4071 0.281134 11.4727C0.302269 11.5382 0.339788 11.5973 0.390141 11.6444L1.40044 12.5865C1.38786 12.7003 1.3767 12.8148 1.36708 12.929L0.191406 13.6566C0.132827 13.6929 0.0844909 13.7435 0.0509907 13.8037C0.0174904 13.8639 -6.21771e-05 13.9317 1.65491e-07 14.0006C1.65491e-07 14.141 0.0725158 14.2711 0.191516 14.3444L1.36708 15.072C1.3767 15.1865 1.38786 15.3008 1.40044 15.4145L0.390031 16.3569C0.339589 16.4039 0.301991 16.463 0.280806 16.5286C0.259621 16.5942 0.255553 16.6641 0.268988 16.7317C0.282423 16.7993 0.312915 16.8623 0.357569 16.9148C0.402223 16.9673 0.459556 17.0075 0.524125 17.0316L1.81563 17.5145C1.84778 17.6263 1.8818 17.7373 1.9168 17.8478L1.11125 18.9668C1.07089 19.0227 1.0455 19.088 1.03752 19.1565C1.02953 19.2251 1.03921 19.2945 1.06563 19.3582C1.09205 19.4219 1.13433 19.4778 1.18846 19.5205C1.24258 19.5633 1.30674 19.5915 1.37484 19.6025L2.73623 19.8239C2.7895 19.9272 2.84408 20.0289 2.9003 20.1302L2.32772 21.3858C2.29904 21.4485 2.28692 21.5175 2.29249 21.5863C2.29806 21.655 2.32115 21.7212 2.35955 21.7784C2.39773 21.8358 2.45 21.8825 2.51135 21.9139C2.57271 21.9453 2.6411 21.9605 2.70998 21.9579L4.09139 21.9096C4.16347 21.9994 4.23598 22.0874 4.30981 22.1749L3.99273 23.5213C3.97686 23.5883 3.97844 23.6583 3.99732 23.7245C4.0162 23.7908 4.05175 23.851 4.10058 23.8996C4.14927 23.9485 4.2097 23.9841 4.27608 24.0029C4.34246 24.0217 4.41257 24.0232 4.47967 24.0071L5.82553 23.6902C5.91303 23.7645 6.00163 23.8367 6.09098 23.9078L6.04286 25.2902C6.04038 25.3591 6.05555 25.4274 6.08695 25.4888C6.11835 25.5501 6.16493 25.6025 6.22225 25.6407C6.27956 25.679 6.34572 25.702 6.41443 25.7075C6.48314 25.713 6.55211 25.7008 6.61478 25.6721L7.87052 25.1C7.97163 25.1562 8.07357 25.2108 8.17633 25.2639L8.39836 26.6251C8.40933 26.6932 8.43755 26.7573 8.48035 26.8114C8.52314 26.8655 8.57907 26.9077 8.64281 26.9341C8.70652 26.9604 8.7759 26.9701 8.8444 26.9622C8.9129 26.9543 8.97825 26.9291 9.03427 26.8889L10.1531 26.0828C10.2635 26.1178 10.3745 26.152 10.4863 26.1842L10.9692 27.4752C10.9933 27.5398 11.0335 27.5972 11.086 27.6419C11.1386 27.6865 11.2017 27.7169 11.2693 27.7302C11.3369 27.7438 11.4069 27.7398 11.4725 27.7187C11.5381 27.6975 11.5971 27.6598 11.644 27.6092L12.5864 26.5988C12.7002 26.6119 12.8146 26.6229 12.9291 26.6331L13.6568 27.8086C13.6931 27.8671 13.7437 27.9154 13.8039 27.9489C13.864 27.9824 13.9317 28 14.0005 28C14.0694 28 14.1372 27.9824 14.1974 27.9489C14.2575 27.9154 14.3082 27.8671 14.3445 27.8086L15.0722 26.6331C15.1867 26.6229 15.301 26.6119 15.4147 26.5988L16.3569 27.6092C16.4038 27.6597 16.4628 27.6974 16.5284 27.7186C16.594 27.7398 16.6639 27.7438 16.7314 27.7302C16.7991 27.7169 16.8622 27.6864 16.9147 27.6418C16.9672 27.5972 17.0075 27.5398 17.0315 27.4752L17.5144 26.1842C17.6262 26.152 17.7373 26.1178 17.8478 26.0828L18.9668 26.8889C19.0228 26.9291 19.0881 26.9544 19.1566 26.9623C19.2251 26.9702 19.2945 26.9605 19.3582 26.9341C19.4218 26.9076 19.4777 26.8654 19.5205 26.8113C19.5632 26.7572 19.5915 26.6931 19.6025 26.6251L19.8245 25.2639C19.9272 25.2107 20.0289 25.1553 20.1303 25.0999L21.386 25.6721C21.4487 25.7009 21.5177 25.7131 21.5864 25.7077C21.6552 25.7022 21.7214 25.6793 21.7787 25.641C21.8361 25.6027 21.8827 25.5503 21.914 25.4889C21.9454 25.4275 21.9606 25.3591 21.958 25.2902L21.9099 23.9079C21.9994 23.8367 22.0877 23.7641 22.1749 23.6902L23.5209 24.0071C23.6576 24.0393 23.8009 23.9995 23.8996 23.8996C23.9485 23.851 23.984 23.7908 24.0029 23.7245C24.0218 23.6583 24.0234 23.5883 24.0075 23.5213L23.6905 22.1749C23.7643 22.0874 23.8371 21.9994 23.9082 21.9096L25.2902 21.9579C25.3591 21.9605 25.4275 21.9454 25.4889 21.914C25.5502 21.8826 25.6025 21.8359 25.6407 21.7785C25.6791 21.7212 25.7022 21.655 25.7078 21.5862C25.7133 21.5174 25.7011 21.4484 25.6723 21.3857L25.1 20.1303C25.1559 20.0289 25.2108 19.9272 25.2638 19.824L26.6255 19.6025C26.6936 19.5915 26.7577 19.5633 26.8117 19.5205C26.8658 19.4777 26.9079 19.4217 26.9341 19.3579C26.9605 19.2942 26.9702 19.2249 26.9623 19.1564C26.9543 19.088 26.929 19.0227 26.8888 18.9668L26.0832 17.8479C26.118 17.7373 26.152 17.6263 26.1844 17.5145L27.4757 17.0316C27.5403 17.0076 27.5977 16.9674 27.6423 16.9148C27.687 16.8622 27.7174 16.7991 27.7306 16.7314C27.7442 16.6639 27.7402 16.5939 27.7191 16.5284C27.6979 16.4628 27.6602 16.4038 27.6096 16.3569L26.5996 15.4145C26.6118 15.3007 26.6231 15.1863 26.6329 15.0721L27.8085 14.3444C27.8671 14.3082 27.9155 14.2576 27.949 14.1974C27.9825 14.1372 28.0001 14.0695 28 14.0006C28 13.8605 27.9278 13.7302 27.8087 13.6566ZM19.9411 23.4079C19.4923 23.3111 19.2068 22.8687 19.3032 22.4184C19.3992 21.9686 19.8413 21.6824 20.29 21.7792C20.7389 21.8753 21.0248 22.3185 20.9286 22.7679C20.8323 23.2175 20.3898 23.504 19.9411 23.4079ZM19.5417 20.7065C19.4443 20.6856 19.3437 20.6841 19.2458 20.7021C19.1478 20.7201 19.0543 20.7573 18.9707 20.8114C18.8871 20.8656 18.815 20.9357 18.7585 21.0178C18.702 21.0998 18.6623 21.1922 18.6415 21.2896L18.2242 23.2372C16.9363 23.8217 15.5062 24.1465 14 24.1465C12.4593 24.1465 10.9981 23.8057 9.68734 23.1962L9.27019 21.2487C9.18247 20.8389 8.77953 20.5778 8.37025 20.6658L6.65088 21.035C6.33133 20.7061 6.03432 20.3561 5.76188 19.9872H14.128C14.2226 19.9872 14.2857 19.9701 14.2857 19.8839V16.9246C14.2857 16.8385 14.2226 16.8213 14.1279 16.8213H11.6813V14.9456H14.3276C14.5691 14.9456 15.6192 15.0145 15.9549 16.3567C16.0601 16.7695 16.2909 18.1121 16.4488 18.542C16.6061 19.0241 17.2465 19.9871 17.929 19.9871H22.0978C22.1452 19.9871 22.1957 19.9818 22.249 19.9721C21.9597 20.365 21.6428 20.7367 21.3008 21.0845L19.5418 20.7065H19.5417ZM7.97092 23.3672C7.52194 23.4641 7.07995 23.1779 6.98338 22.7281C6.88734 22.2776 7.17281 21.8354 7.62169 21.7386C8.07067 21.6426 8.51287 21.9288 8.60913 22.3785C8.70516 22.828 8.41947 23.2709 7.97081 23.3672H7.97092ZM4.79719 10.4984C4.98345 10.9186 4.79391 11.4111 4.37423 11.597C3.95456 11.7835 3.46336 11.5937 3.2772 11.1732C3.09094 10.7527 3.28038 10.261 3.70016 10.0745C3.8 10.0303 3.90759 10.0061 4.01678 10.0034C4.12597 10.0008 4.23462 10.0196 4.33651 10.059C4.43839 10.0983 4.53153 10.1574 4.61057 10.2328C4.68962 10.3081 4.75303 10.3984 4.79719 10.4983V10.4984ZM3.82178 12.8105L5.61291 12.0146C5.79678 11.9328 5.94066 11.7814 6.01293 11.5936C6.0852 11.4057 6.07996 11.1969 5.99834 11.013L5.62953 10.1789H7.08028V16.7181H4.1533C3.89384 15.8047 3.76258 14.8597 3.76327 13.9103C3.76327 13.5386 3.78328 13.1713 3.82178 12.8104V12.8105ZM11.6817 12.1754V10.2479H15.1364C15.3149 10.2479 16.3964 10.4542 16.3964 11.2629C16.3964 11.9343 15.5669 12.1751 14.8847 12.1751H11.6817V12.1754ZM24.2371 13.9103C24.2371 14.166 24.2277 14.4191 24.209 14.6702H23.1586C23.0535 14.6702 23.0112 14.7393 23.0112 14.8422V15.3246C23.0112 16.4598 22.371 16.7068 21.81 16.7697C21.2758 16.8299 20.6835 16.546 20.6105 16.2191C20.2953 14.4466 19.7702 14.0681 18.9409 13.4139C19.9701 12.7604 21.0409 11.7963 21.0409 10.5057C21.0409 9.11228 20.0856 8.23456 19.4344 7.80418C18.5209 7.20198 17.5094 7.08123 17.2365 7.08123H6.37427C7.84722 5.43735 9.84353 4.27286 12.1014 3.84915L13.3817 5.19225C13.4504 5.26434 13.5326 5.32218 13.6237 5.36245C13.7148 5.40272 13.8129 5.42463 13.9125 5.42693C14.012 5.42922 14.111 5.41186 14.2039 5.37583C14.2967 5.3398 14.3815 5.28582 14.4535 5.21697L15.8861 3.84674C18.8879 4.40564 21.4294 6.27417 22.894 8.83776L21.9133 11.0529C21.744 11.4362 21.9168 11.8846 22.299 12.0544L24.1873 12.8931C24.2199 13.2283 24.2371 13.5669 24.2371 13.9103ZM13.3822 2.70653C13.714 2.3888 14.2402 2.40138 14.5578 2.73355C14.8748 3.0667 14.8628 3.59344 14.5303 3.91095C14.1985 4.22878 13.6723 4.21642 13.3547 3.8836C13.2025 3.72374 13.1199 3.51003 13.1251 3.28937C13.1303 3.0687 13.2227 2.8591 13.3822 2.70653ZM23.1148 10.5387C23.1589 10.4388 23.2223 10.3486 23.3013 10.2733C23.3804 10.1979 23.4735 10.1389 23.5753 10.0995C23.6772 10.0602 23.7859 10.0413 23.895 10.044C24.0042 10.0467 24.1118 10.0709 24.2116 10.1152C24.6314 10.3014 24.8208 10.7937 24.6345 11.2139C24.5904 11.3138 24.527 11.4041 24.448 11.4795C24.369 11.5549 24.2758 11.614 24.1739 11.6533C24.072 11.6927 23.9634 11.7116 23.8542 11.7089C23.7449 11.7062 23.6373 11.682 23.5375 11.6377C23.1183 11.4514 22.9288 10.9596 23.1148 10.5387Z" fill="white"/>
</svg>
