<svg width="28" height="28" viewBox="0 0 28 28" fill="none" xmlns="http://www.w3.org/2000/svg">
<path d="M14 5.60229C10.2666 5.60229 7.93328 7.46849 6.99983 11.2005C8.4 9.33434 10.0334 8.63478 11.8999 9.10115C12.965 9.36725 13.7262 10.14 14.569 10.995C15.9415 12.3878 17.53 13.9998 21.0002 13.9998C24.7333 13.9998 27.0669 12.1336 28 8.40124C26.6002 10.2674 24.9668 10.9673 23.0999 10.501C22.0352 10.2349 21.274 9.46214 20.4312 8.60712C19.0587 7.2143 17.4698 5.60229 14 5.60229ZM6.99983 13.9998C3.26673 13.9998 0.9331 15.866 0 19.5984C1.39982 17.7322 3.03319 17.0323 4.90009 17.499C5.96484 17.7655 6.72602 18.5379 7.56879 19.3925C8.9413 20.7854 10.5302 22.3977 14 22.3977C17.7335 22.3977 20.0667 20.5315 21.0002 16.7991C19.6 18.6653 17.9666 19.3652 16.1001 18.8985C15.035 18.6328 14.2738 17.8597 13.431 17.005C12.0585 15.6122 10.47 13.9998 6.99983 13.9998Z" fill="#06B6D4"/>
</svg>
