<svg width="28" height="28" viewBox="0 0 28 28" fill="none" xmlns="http://www.w3.org/2000/svg">
<path d="M0 0H28V28H0V0Z" fill="#017ACB"/>
<path d="M13.4444 10.3689H14.7875V12.6876H11.1563V23.0039L11.06 23.0301C10.9288 23.0651 9.20066 23.0651 8.82878 23.0257L8.53128 22.9995V12.6876H4.90002V10.3689L6.05065 10.3557C6.68065 10.347 8.29941 10.347 9.64691 10.3557C10.9944 10.3645 12.7007 10.3689 13.4444 10.3689ZM23.6951 21.9101C23.1613 22.4745 22.5882 22.7895 21.6344 23.0476C21.2188 23.1614 21.1488 23.1657 20.2126 23.1614C19.2763 23.157 19.2019 23.157 18.7469 23.0389C17.57 22.737 16.6207 22.1464 15.9732 21.3107C15.7894 21.0745 15.4875 20.5845 15.4875 20.5232C15.4875 20.5057 15.5313 20.4664 15.5882 20.4401C15.645 20.4139 15.7632 20.3395 15.8594 20.2826C15.9557 20.2257 16.1307 20.1207 16.2488 20.0595C16.3669 19.9982 16.7082 19.797 17.0057 19.6176C17.3032 19.4382 17.5744 19.2939 17.605 19.2939C17.6357 19.2939 17.6925 19.3551 17.7363 19.4295C17.9988 19.8714 18.6113 20.4357 19.0444 20.6282C19.3113 20.742 19.9019 20.8689 20.1863 20.8689C20.4488 20.8689 20.9301 20.7551 21.1882 20.637C21.4638 20.5101 21.6038 20.3832 21.7701 20.1295C21.8838 19.9501 21.8969 19.902 21.8926 19.5607C21.8926 19.2457 21.8751 19.1582 21.7876 19.0139C21.5426 18.6114 21.2101 18.4014 19.8625 17.8064C18.4713 17.1895 17.8457 16.822 17.3382 16.3276C16.9619 15.9601 16.8875 15.8595 16.6513 15.4001C16.345 14.8095 16.3057 14.617 16.3013 13.7376C16.2969 13.1207 16.31 12.9195 16.3757 12.7095C16.4675 12.3945 16.765 11.7864 16.9007 11.6332C17.1807 11.3051 17.2813 11.2045 17.4782 11.0426C18.0732 10.5526 19.0007 10.2289 19.8888 10.1982C19.9894 10.1982 20.3219 10.2157 20.6326 10.2376C21.5251 10.312 22.1332 10.5307 22.7194 10.9989C23.1613 11.3489 23.8307 12.1714 23.7651 12.2807C23.7213 12.3464 21.9757 13.5101 21.8619 13.5451C21.7919 13.567 21.7438 13.5407 21.6476 13.427C21.0526 12.7139 20.8119 12.5607 20.2344 12.5257C19.8232 12.4995 19.6044 12.5476 19.3288 12.7314C19.04 12.9239 18.9 13.217 18.9 13.6239C18.9044 14.2189 19.1319 14.4989 19.9719 14.9145C20.5144 15.1814 20.9782 15.4001 21.0132 15.4001C21.0657 15.4001 22.1901 15.9601 22.4832 16.1351C23.8482 16.9357 24.4038 17.7582 24.5482 19.1757C24.6532 20.2432 24.3513 21.2189 23.6951 21.9101Z" fill="white"/>
</svg>
